<?xml version="1.0" standalone="no"?>
<!DOCTYPE svg PUBLIC "-//W3C//DTD SVG 20010904//EN"
 "http://www.w3.org/TR/2001/REC-SVG-20010904/DTD/svg10.dtd">
<svg version="1.0" xmlns="http://www.w3.org/2000/svg"
 width="250.000000pt" height="250.000000pt" viewBox="0 0 250.000000 250.000000"
 preserveAspectRatio="xMidYMid meet">
<metadata>
Created by potrace 1.14, written by Peter Selinger 2001-2017
</metadata>
<g transform="translate(0.000000,250.000000) scale(0.100000,-0.100000)"
fill="#000000" stroke="none">
<path d="M1460 2008 c-62 -17 -114 -63 -147 -128 -13 -28 -66 -203 -87 -290
-19 -78 -127 -474 -130 -477 -2 -2 -2 135 -2 303 1 168 -2 311 -6 317 -4 6
-31 12 -60 13 -105 4 -187 -68 -227 -201 -10 -33 -45 -158 -77 -277 -32 -119
-60 -216 -61 -214 -2 1 -21 70 -44 152 -22 82 -46 153 -52 157 -7 4 -40 6 -73
5 -79 -5 -132 -38 -173 -109 -38 -67 -150 -477 -133 -488 27 -16 101 -11 145
9 54 25 68 40 106 109 l29 53 11 -33 c5 -19 21 -77 35 -129 31 -120 42 -150
58 -151 7 -1 27 -3 43 -5 48 -5 103 14 145 52 61 55 74 88 155 399 16 61 16
73 15 -283 -1 -323 -6 -300 68 -306 76 -6 159 48 199 129 17 33 66 194 78 255
2 8 12 49 24 90 52 184 83 297 86 315 3 11 11 40 19 65 12 41 13 15 13 -263 0
-169 2 -310 5 -313 3 -3 28 -7 56 -9 99 -7 183 59 225 175 13 37 49 163 62
220 2 8 13 49 25 90 11 41 22 82 24 90 24 92 29 110 35 110 6 0 22 -50 36
-115 11 -53 48 -171 57 -182 6 -7 34 -11 73 -10 89 3 137 37 186 134 20 39 36
77 36 85 0 7 12 56 27 108 14 52 36 134 49 182 l24 87 -31 7 c-99 23 -185 -26
-244 -141 l-20 -40 -7 30 c-4 17 -20 75 -35 130 -15 55 -31 112 -34 127 -5 23
-13 28 -49 33 -111 17 -207 -55 -248 -186 -12 -41 -24 -81 -26 -89 -2 -8 -16
-62 -32 -120 l-30 -105 0 312 c-1 171 -5 314 -10 317 -17 11 -77 13 -111 4z"/>
</g>
</svg>
